<svg width="1998" height="1261" viewBox="0 0 1998 1261" fill="none" xmlns="http://www.w3.org/2000/svg">
<rect width="1998" height="1261" fill="url(#paint0_linear_12_105)"/>
<path fill-rule="evenodd" clip-rule="evenodd" d="M768.998 548.215L770.294 479.946C775.393 439.416 805.725 412.281 840.033 400.702C876.414 388.344 941.572 396.554 983.83 394.134L984.608 257.941C972.423 256.472 885.747 257.423 865.871 257.423C792.59 257.423 730.197 247.658 677.656 308.927C668.323 319.729 660.718 330.013 654.064 344.963C640.842 374.863 641.015 404.677 640.583 436.651C639.287 524.191 640.583 719.406 640.583 748.01C640.583 797.181 634.88 872.45 652.595 912.72C661.755 933.633 676.532 953.768 689.668 964.915C753.962 1019.36 821.885 1003.89 901.302 1003.89L900.524 867.005C880.908 866.833 868.636 867.005 849.798 863.462C818.083 854.216 797.17 839.439 782.825 816.884C764.937 788.798 769.862 751.207 769.862 713.443C769.862 659.433 768.652 603.262 768.998 548.215Z" fill="#D0E7EA" fill-opacity="0.11"/>
<path fill-rule="evenodd" clip-rule="evenodd" d="M956.695 554.523C934.054 560.486 932.326 576.473 932.326 602.225C932.412 722.776 931.116 847.821 932.326 967.508C932.585 991.791 944.597 1003.72 969.312 1003.98C1077.76 1004.75 1065.93 1016.07 1065.93 881.178L1066.01 589.608C1065.84 565.412 1053.4 553.486 1028.94 553.4C1014.33 553.4 967.324 551.758 956.695 554.523Z" fill="#D0E7EA" fill-opacity="0.11"/>
<path fill-rule="evenodd" clip-rule="evenodd" d="M1287.67 280.755C1266.67 267.274 1241.01 258.028 1210.76 257.423C1175.33 256.732 1040.87 255.781 1011.83 257.596L1011.57 393.961C1051.24 396.986 1102.13 389.813 1139.55 396.035C1195.12 405.195 1207.74 437.774 1218.28 447.885C1222.25 460.243 1226.49 466.032 1227.96 481.242C1230.03 522.549 1228.3 568.263 1228.3 610.002C1228.39 652.865 1228.3 695.728 1228.39 738.59C1228.48 792.86 1228.39 806.946 1198.14 837.278C1174.38 861.302 1141.54 866.487 1097.81 867.005L1097.64 1003.89C1133.33 1003.8 1169.71 1003.98 1206.09 1003.8C1263.73 1003.54 1315.84 972.693 1341.08 922.226C1356.03 892.325 1357.58 867.87 1357.58 829.501C1357.58 798.996 1358.79 575.09 1357.84 462.057C1357.15 387.912 1361.64 327.939 1287.67 280.755Z" fill="#D0E7EA" fill-opacity="0.11"/>
<path fill-rule="evenodd" clip-rule="evenodd" d="M622.963 595.805L623.516 567.312C625.618 550.409 638.306 539.042 652.617 534.207C667.812 529.077 694.995 532.472 712.662 531.476L712.957 474.565C707.867 473.975 671.685 474.344 663.386 474.344C632.81 474.344 606.771 470.284 584.826 495.897C580.953 500.4 577.781 504.681 575.015 510.919C569.483 523.43 569.556 535.868 569.372 549.228C568.819 585.766 569.372 667.33 569.372 679.251C569.372 699.809 566.975 731.253 574.351 748.046C578.224 756.83 584.346 765.245 589.842 769.895C616.693 792.593 645.019 786.171 678.213 786.134L677.844 729.002C669.693 728.891 664.567 728.965 656.674 727.489C643.433 723.614 634.728 717.487 628.753 708.039C621.266 696.302 623.332 680.617 623.332 664.858C623.332 642.271 622.815 618.835 622.963 595.805Z" fill="#D0E7EA"/>
<path fill-rule="evenodd" clip-rule="evenodd" d="M701.339 598.462C691.86 600.935 691.122 607.615 691.122 618.355C691.159 668.733 690.643 720.956 691.159 770.965C691.233 781.115 696.249 786.097 706.576 786.171C751.831 786.54 746.926 791.264 746.926 734.907V613.114C746.852 603.038 741.652 598.056 731.472 598.019C725.349 597.982 705.765 597.318 701.339 598.462Z" fill="#D0E7EA"/>
<path fill-rule="evenodd" clip-rule="evenodd" d="M839.465 484.087C830.687 478.477 819.954 474.639 807.377 474.381C792.55 474.085 736.414 473.679 724.317 474.418L724.206 531.402C740.766 532.657 762.011 529.667 777.612 532.251C800.849 536.089 806.086 549.708 810.512 553.915C812.135 559.082 813.942 561.481 814.532 567.866C815.417 585.102 814.68 604.219 814.68 621.64C814.68 639.539 814.68 657.439 814.716 675.339C814.753 698 814.716 703.868 802.103 716.564C792.144 726.566 778.461 728.781 760.241 728.965L760.13 786.134C775.031 786.097 790.226 786.171 805.385 786.097C829.47 785.986 851.194 773.106 861.742 752.032C868.012 739.557 868.639 729.334 868.639 713.317C868.639 700.584 869.119 607.061 868.75 559.857C868.455 528.855 870.336 503.832 839.465 484.087Z" fill="#D0E7EA"/>
<path d="M975.599 559.931C975.599 560.964 975.415 561.924 975.046 562.81C974.677 563.696 974.161 564.471 973.534 565.098C972.907 565.762 972.132 566.242 971.247 566.648C970.362 566.98 969.403 567.202 968.37 567.202H916.513C915.185 567.202 913.747 567.017 912.234 566.722C910.685 566.427 909.173 565.91 907.698 565.246C906.222 564.581 904.784 563.732 903.419 562.662C902.055 561.629 900.838 560.337 899.805 558.861C898.735 557.384 897.924 555.613 897.297 553.657C896.633 551.701 896.338 549.449 896.338 547.014V508.04C896.338 506.711 896.485 505.309 896.817 503.759C897.112 502.245 897.592 500.732 898.256 499.219C898.92 497.743 899.805 496.303 900.874 494.938C901.944 493.572 903.198 492.391 904.71 491.321C906.222 490.251 907.919 489.439 909.874 488.811C911.829 488.184 914.042 487.852 916.513 487.852H974.935V502.245H916.513C914.632 502.245 913.193 502.725 912.198 503.759C911.202 504.718 910.685 506.194 910.685 508.151V547.014C910.685 548.822 911.202 550.261 912.234 551.295C913.23 552.291 914.669 552.808 916.513 552.808H961.215V534.76H922.967V520.293H968.37C969.403 520.293 970.362 520.477 971.247 520.847C972.132 521.253 972.907 521.769 973.534 522.434C974.161 523.098 974.677 523.873 975.046 524.722C975.415 525.608 975.599 526.53 975.599 527.527V559.931Z" fill="#D0E7EA"/>
<path d="M1063.38 567.202H997.803C996.807 567.202 995.848 566.98 994.963 566.648C994.078 566.242 993.303 565.762 992.639 565.098C992.012 564.471 991.496 563.696 991.127 562.81C990.758 561.924 990.574 560.964 990.574 559.931V487.852H1004.96V552.808H1063.38V567.202Z" fill="#D0E7EA"/>
<path d="M1155.96 535.093C1155.96 539.927 1155.11 544.393 1153.45 548.453C1151.79 552.513 1149.5 555.982 1146.55 558.935C1143.56 561.887 1140.1 564.175 1136.04 565.836C1132.02 567.46 1127.63 568.309 1122.87 568.309H1103.4C1098.64 568.309 1094.25 567.46 1090.19 565.836C1086.14 564.175 1082.67 561.887 1079.72 558.935C1076.73 555.982 1074.44 552.513 1072.75 548.453C1071.09 544.393 1070.24 539.927 1070.24 535.093V519.961C1070.24 515.163 1071.09 510.697 1072.75 506.637C1074.44 502.578 1076.73 499.071 1079.72 496.119C1082.67 493.203 1086.14 490.915 1090.19 489.254C1094.25 487.593 1098.64 486.745 1103.4 486.745H1122.87C1127.63 486.745 1132.02 487.593 1136.04 489.254C1140.1 490.915 1143.56 493.203 1146.55 496.119C1149.5 499.071 1151.79 502.578 1153.45 506.637C1155.11 510.697 1155.96 515.163 1155.96 519.961V535.093ZM1141.57 519.961C1141.57 517.119 1141.09 514.535 1140.21 512.21C1139.28 509.922 1138.03 507.966 1136.41 506.305C1134.75 504.681 1132.79 503.39 1130.47 502.504C1128.15 501.581 1125.64 501.138 1122.87 501.138H1103.4C1100.63 501.138 1098.05 501.581 1095.76 502.504C1093.48 503.39 1091.48 504.681 1089.83 506.305C1088.17 507.966 1086.87 509.922 1085.99 512.21C1085.07 514.535 1084.62 517.119 1084.62 519.961V535.093C1084.62 537.935 1085.07 540.518 1085.99 542.806C1086.87 545.131 1088.17 547.087 1089.83 548.748C1091.48 550.372 1093.48 551.664 1095.76 552.55C1098.05 553.472 1100.63 553.915 1103.4 553.915H1122.76C1125.56 553.915 1128.11 553.472 1130.43 552.55C1132.72 551.664 1134.71 550.372 1136.37 548.748C1138.03 547.087 1139.28 545.131 1140.21 542.806C1141.09 540.518 1141.57 537.935 1141.57 535.093V519.961Z" fill="#D0E7EA"/>
<path d="M1249.23 549.745C1249.23 551.516 1248.94 553.435 1248.31 555.465C1247.72 557.495 1246.72 559.377 1245.32 561.112C1243.96 562.847 1242.19 564.286 1239.98 565.43C1237.73 566.611 1235.03 567.202 1231.82 567.202H1177.27C1176.24 567.202 1175.28 566.98 1174.4 566.648C1173.51 566.242 1172.74 565.762 1172.07 565.098C1171.45 564.471 1170.93 563.696 1170.6 562.81C1170.19 561.924 1170.05 560.964 1170.05 559.931V495.122C1170.05 494.126 1170.19 493.166 1170.6 492.281C1170.93 491.395 1171.45 490.62 1172.07 489.955C1172.74 489.291 1173.51 488.774 1174.4 488.405C1175.28 488.036 1176.24 487.852 1177.27 487.852H1225.37C1227.14 487.852 1229.02 488.184 1231.05 488.811C1233.08 489.439 1234.96 490.435 1236.73 491.801C1238.46 493.203 1239.94 495.012 1241.08 497.226C1242.26 499.404 1242.82 502.135 1242.82 505.346V508.04C1242.82 510.586 1242.41 513.318 1241.56 516.27C1240.71 519.223 1239.35 521.954 1237.47 524.574C1239.09 525.608 1240.6 526.789 1242 528.191C1243.44 529.594 1244.7 531.217 1245.77 533.063C1246.84 534.908 1247.68 536.975 1248.31 539.3C1248.94 541.625 1249.23 544.172 1249.23 547.014V549.745ZM1234.89 547.014C1234.89 545.131 1234.55 543.434 1233.96 541.957C1233.41 540.444 1232.56 539.152 1231.49 538.082C1230.42 537.012 1229.13 536.2 1227.62 535.646C1226.11 535.056 1224.41 534.76 1222.53 534.76H1190.15V520.293H1216.08C1217.96 520.293 1219.65 519.998 1221.17 519.407C1222.68 518.854 1223.97 518.005 1225.04 516.971C1226.11 515.901 1226.92 514.609 1227.47 513.096C1228.06 511.62 1228.36 509.922 1228.36 508.04V505.346C1228.36 503.279 1227.36 502.245 1225.37 502.245H1184.39V552.808H1231.82C1232.08 552.808 1232.41 552.771 1232.78 552.734C1233.12 552.697 1233.48 552.587 1233.78 552.402C1234.07 552.217 1234.33 551.922 1234.55 551.479C1234.74 551.036 1234.89 550.409 1234.89 549.634V547.014Z" fill="#D0E7EA"/>
<path d="M1339.52 567.202H1325.14V547.715H1274.61V567.202H1260.22V527.527C1260.22 521.732 1261.22 516.381 1263.21 511.546C1265.2 506.674 1267.97 502.467 1271.51 498.998C1275.05 495.491 1279.22 492.76 1284.05 490.804C1288.88 488.848 1294.16 487.852 1299.87 487.852H1332.26C1333.25 487.852 1334.21 488.036 1335.1 488.405C1335.98 488.774 1336.76 489.291 1337.42 489.955C1338.05 490.62 1338.6 491.395 1338.93 492.281C1339.34 493.166 1339.52 494.126 1339.52 495.122V567.202ZM1274.61 533.321H1325.14V502.245H1299.87C1299.43 502.245 1298.51 502.319 1297.07 502.43C1295.67 502.578 1294.01 502.91 1292.16 503.39C1290.32 503.906 1288.33 504.718 1286.26 505.788C1284.2 506.859 1282.32 508.335 1280.58 510.217C1278.85 512.1 1277.41 514.462 1276.27 517.267C1275.16 520.071 1274.61 523.504 1274.61 527.527V533.321Z" fill="#D0E7EA"/>
<path d="M1429 567.202H1363.46C1362.43 567.202 1361.47 566.98 1360.58 566.648C1359.7 566.242 1358.92 565.762 1358.26 565.098C1357.63 564.471 1357.12 563.696 1356.75 562.81C1356.38 561.924 1356.19 560.964 1356.19 559.931V487.852H1370.58V552.808H1429V567.202Z" fill="#D0E7EA"/>
<path d="M976.484 643.341C976.484 648.176 975.636 652.605 973.976 656.664C972.317 660.724 969.993 664.23 967.042 667.146C964.092 670.098 960.588 672.387 956.531 674.048C952.474 675.708 948.085 676.52 943.327 676.52H904.526C903.493 676.52 902.534 676.336 901.649 675.967C900.764 675.598 899.989 675.081 899.325 674.454C898.698 673.826 898.182 673.051 897.813 672.165C897.444 671.279 897.297 670.32 897.297 669.287V604.478C897.297 603.444 897.444 602.522 897.813 601.636C898.182 600.75 898.698 599.975 899.325 599.311C899.989 598.647 900.764 598.13 901.649 597.761C902.534 597.392 903.493 597.207 904.526 597.207H943.327C948.085 597.207 952.474 598.056 956.531 599.717C960.588 601.378 964.092 603.666 967.042 606.582C969.993 609.534 972.317 613.003 973.976 617.1C975.636 621.16 976.484 625.626 976.484 630.387V643.341ZM962.1 630.387C962.1 627.582 961.657 625.035 960.772 622.71C959.85 620.385 958.596 618.392 956.936 616.768C955.277 615.144 953.285 613.852 950.998 612.93C948.675 612.044 946.13 611.564 943.327 611.564H911.644V662.127H943.327C946.13 662.127 948.675 661.684 950.998 660.798C953.285 659.912 955.277 658.62 956.936 656.96C958.596 655.336 959.85 653.38 960.772 651.054C961.657 648.766 962.1 646.183 962.1 643.341V630.387Z" fill="#D0E7EA"/>
<path d="M1005.07 676.52H990.684V597.207H1005.07V676.52Z" fill="#D0E7EA"/>
<path d="M1100.08 669.287C1100.08 670.32 1099.89 671.279 1099.53 672.165C1099.16 673.051 1098.64 673.826 1098.01 674.454C1097.39 675.081 1096.61 675.598 1095.73 675.967C1094.84 676.336 1093.88 676.52 1092.85 676.52H1040.99C1039.66 676.52 1038.23 676.373 1036.71 676.077C1035.16 675.745 1033.65 675.265 1032.18 674.601C1030.7 673.937 1029.26 673.088 1027.9 672.018C1026.53 670.984 1025.32 669.692 1024.28 668.216C1023.21 666.703 1022.37 664.968 1021.78 663.012C1021.11 661.019 1020.82 658.805 1020.82 656.332V617.395C1020.82 616.067 1020.96 614.627 1021.3 613.114C1021.59 611.564 1022.07 610.088 1022.74 608.575C1023.4 607.098 1024.28 605.659 1025.35 604.293C1026.42 602.928 1027.68 601.71 1029.19 600.676C1030.7 599.606 1032.4 598.794 1034.35 598.167C1036.31 597.502 1038.52 597.207 1040.99 597.207H1099.41V611.564H1040.99C1039.11 611.564 1037.67 612.081 1036.68 613.077C1035.68 614.074 1035.16 615.55 1035.16 617.506V656.332C1035.16 658.178 1035.68 659.617 1036.71 660.65C1037.71 661.647 1039.15 662.127 1040.99 662.127H1085.69V644.116H1047.45V629.648H1092.85C1093.88 629.648 1094.84 629.833 1095.73 630.202C1096.61 630.608 1097.39 631.125 1098.01 631.789C1098.64 632.453 1099.16 633.228 1099.53 634.077C1099.89 634.926 1100.08 635.886 1100.08 636.845V669.287Z" fill="#D0E7EA"/>
<path d="M1129.55 676.52H1115.16V597.207H1129.55V676.52Z" fill="#D0E7EA"/>
<path d="M1217.99 611.564H1186.31V676.52H1171.93V611.564H1140.21V597.207H1217.99V611.564Z" fill="#D0E7EA"/>
<path d="M1303.56 676.52H1289.18V657.07H1238.65V676.52H1224.3V636.845C1224.3 631.088 1225.3 625.736 1227.25 620.901C1229.28 616.03 1232.01 611.822 1235.55 608.316C1239.09 604.81 1243.29 602.116 1248.13 600.123C1252.96 598.204 1258.2 597.207 1263.91 597.207H1296.33C1297.29 597.207 1298.25 597.392 1299.14 597.761C1300.02 598.13 1300.8 598.647 1301.46 599.311C1302.12 599.975 1302.64 600.75 1303.01 601.636C1303.38 602.522 1303.56 603.444 1303.56 604.478V676.52ZM1238.65 642.677H1289.18V611.564H1263.91C1263.47 611.564 1262.55 611.638 1261.15 611.785C1259.71 611.933 1258.08 612.228 1256.2 612.745C1254.36 613.262 1252.4 614.037 1250.34 615.144C1248.27 616.214 1246.36 617.691 1244.62 619.536C1242.89 621.418 1241.49 623.78 1240.34 626.622C1239.24 629.427 1238.65 632.822 1238.65 636.845V642.677Z" fill="#D0E7EA"/>
<path d="M1393.08 676.52H1327.5C1326.47 676.52 1325.51 676.336 1324.62 675.967C1323.74 675.598 1322.96 675.081 1322.33 674.454C1321.67 673.826 1321.19 673.051 1320.82 672.165C1320.45 671.279 1320.23 670.32 1320.23 669.287V597.207H1334.62V662.127H1393.08V676.52Z" fill="#D0E7EA"/>
<path d="M976.595 779.749C976.595 780.746 976.41 781.705 976.042 782.628C975.636 783.514 975.12 784.289 974.493 784.916C973.829 785.544 973.054 786.06 972.169 786.429C971.284 786.798 970.362 786.983 969.366 786.983C968.481 786.983 967.595 786.835 966.673 786.466C965.788 786.171 964.977 785.617 964.276 784.879L911.755 729.999V785.876H897.371V712.689C897.371 711.213 897.776 709.884 898.625 708.703C899.436 707.485 900.506 706.599 901.797 706.009C903.161 705.455 904.563 705.308 906.001 705.603C907.44 705.861 908.694 706.526 909.726 707.596L962.247 762.44V706.563H976.595V779.749Z" fill="#D0E7EA"/>
<path d="M1058.48 753.471H1013.07V738.967H1058.48V753.471ZM1064.93 785.876H1013.07C1011.12 785.876 1008.94 785.507 1006.58 784.805C1004.22 784.104 1002.01 782.96 1000.02 781.373C998.024 779.749 996.328 777.682 995 775.099C993.635 772.552 992.971 769.415 992.971 765.688V713.796C992.971 712.8 993.156 711.877 993.524 710.991C993.893 710.106 994.373 709.331 995.037 708.666C995.701 708.002 996.438 707.485 997.323 707.116C998.209 706.747 999.168 706.562 1000.2 706.562H1064.93V720.919H1007.36V765.688C1007.36 767.57 1007.83 769.009 1008.83 770.006C1009.83 771.002 1011.3 771.482 1013.18 771.482H1064.93V785.876Z" fill="#D0E7EA"/>
<path d="M1156.47 778.642C1156.47 779.675 1156.29 780.635 1155.92 781.521C1155.55 782.369 1155.03 783.145 1154.37 783.809C1153.71 784.436 1152.93 784.953 1152.05 785.322C1151.16 785.691 1150.24 785.876 1149.24 785.876H1116.86C1113.8 785.876 1110.7 785.543 1107.57 784.879C1104.43 784.215 1101.41 783.181 1098.46 781.816C1095.54 780.413 1092.78 778.679 1090.19 776.538C1087.61 774.398 1085.36 771.851 1083.41 768.935C1081.49 765.983 1079.98 762.624 1078.87 758.86C1077.76 755.095 1077.21 750.851 1077.21 746.201V706.562H1091.56V746.201C1091.56 750.26 1092.15 753.693 1093.29 756.498C1094.4 759.303 1095.84 761.665 1097.57 763.51C1099.27 765.392 1101.19 766.869 1103.25 767.976C1105.32 769.009 1107.27 769.821 1109.12 770.338C1111 770.854 1112.62 771.187 1114.06 771.297C1115.46 771.445 1116.42 771.482 1116.86 771.482H1142.13V706.562H1156.47V778.642Z" fill="#D0E7EA"/>
<path d="M1252.4 733.209C1252.4 736.494 1252 739.447 1251.19 742.03C1250.38 744.577 1249.27 746.865 1247.91 748.858C1246.5 750.814 1244.92 752.512 1243.11 753.914C1241.3 755.317 1239.42 756.461 1237.43 757.383C1235.48 758.269 1233.48 758.897 1231.46 759.34C1229.46 759.709 1227.58 759.93 1225.78 759.93L1255.8 785.876H1233.59L1203.65 759.93H1193.28V745.536H1225.78C1227.62 745.389 1229.28 745.02 1230.75 744.429C1232.23 743.802 1233.52 742.99 1234.63 741.956C1235.7 740.923 1236.55 739.668 1237.14 738.229C1237.73 736.752 1238.02 735.092 1238.02 733.209V724.13C1238.02 723.318 1237.91 722.728 1237.73 722.285C1237.5 721.879 1237.25 721.547 1236.95 721.362C1236.62 721.141 1236.29 721.03 1235.95 720.993C1235.59 720.956 1235.25 720.919 1235 720.919H1187.53V785.876H1173.18V713.796C1173.18 712.8 1173.36 711.877 1173.73 710.991C1174.1 710.106 1174.58 709.331 1175.25 708.666C1175.87 708.002 1176.65 707.485 1177.53 707.116C1178.42 706.747 1179.38 706.562 1180.41 706.562H1235C1238.2 706.562 1240.9 707.153 1243.11 708.297C1245.32 709.478 1247.13 710.918 1248.5 712.689C1249.86 714.424 1250.86 716.306 1251.48 718.336C1252.11 720.366 1252.4 722.248 1252.4 724.056V733.209Z" fill="#D0E7EA"/>
<path d="M1350.03 753.803C1350.03 758.638 1349.19 763.067 1347.53 767.127C1345.87 771.187 1343.58 774.693 1340.63 777.609C1337.68 780.598 1334.17 782.886 1330.15 784.51C1326.13 786.171 1321.71 786.983 1316.95 786.983H1297.48C1292.75 786.983 1288.33 786.171 1284.27 784.51C1280.21 782.886 1276.75 780.598 1273.8 777.609C1270.85 774.693 1268.52 771.187 1266.86 767.127C1265.17 763.067 1264.35 758.638 1264.35 753.803V738.635C1264.35 733.837 1265.17 729.408 1266.86 725.311C1268.52 721.252 1270.85 717.745 1273.8 714.83C1276.75 711.914 1280.21 709.589 1284.27 707.928C1288.33 706.267 1292.75 705.455 1297.48 705.455H1316.95C1321.71 705.455 1326.13 706.267 1330.15 707.928C1334.17 709.589 1337.68 711.914 1340.63 714.83C1343.58 717.745 1345.87 721.252 1347.53 725.311C1349.19 729.408 1350.03 733.837 1350.03 738.635V753.803ZM1335.65 738.635C1335.65 735.793 1335.21 733.209 1334.28 730.921C1333.4 728.596 1332.11 726.64 1330.49 725.016C1328.83 723.355 1326.87 722.1 1324.55 721.178C1322.26 720.292 1319.72 719.812 1316.95 719.812H1297.48C1294.71 719.812 1292.16 720.292 1289.84 721.178C1287.55 722.1 1285.56 723.355 1283.9 725.016C1282.24 726.64 1280.95 728.596 1280.07 730.921C1279.14 733.209 1278.7 735.793 1278.7 738.635V753.803C1278.7 756.645 1279.14 759.192 1280.07 761.517C1280.95 763.805 1282.24 765.798 1283.9 767.422C1285.56 769.083 1287.55 770.338 1289.84 771.261C1292.16 772.146 1294.71 772.589 1297.48 772.589H1316.84C1319.64 772.589 1322.19 772.146 1324.51 771.261C1326.83 770.338 1328.79 769.083 1330.45 767.422C1332.11 765.798 1333.4 763.805 1334.28 761.517C1335.21 759.192 1335.65 756.645 1335.65 753.803V738.635Z" fill="#D0E7EA"/>
<defs>
<linearGradient id="paint0_linear_12_105" x1="0" y1="630.5" x2="1998" y2="630.5" gradientUnits="userSpaceOnUse">
<stop stop-color="#005F69"/>
<stop offset="0.5" stop-color="#009474"/>
<stop offset="1" stop-color="#6DB93A"/>
</linearGradient>
</defs>
</svg>
