<svg width="48" height="48" viewBox="0 0 48 48" fill="none" xmlns="http://www.w3.org/2000/svg">
<path fill-rule="evenodd" clip-rule="evenodd" d="M9.43528 18.7577L9.51737 14.4345C9.84023 11.868 11.761 10.1497 13.9335 9.41645C16.2373 8.63391 20.3634 9.15378 23.0394 9.00056L23.0886 0.376228C22.3171 0.283199 16.8283 0.343394 15.5697 0.343394C10.9292 0.343394 6.97822 -0.274975 3.65107 3.60488C3.06006 4.28892 2.5785 4.94012 2.15714 5.88682C1.31988 7.78024 1.33082 9.66818 1.30346 11.6929C1.22137 17.2364 1.30346 29.5983 1.30346 31.4096C1.30346 34.5233 0.942287 39.2897 2.06411 41.8398C2.64417 43.1641 3.57993 44.4391 4.41172 45.145C8.4831 48.5926 12.7843 47.613 17.8134 47.613L17.7641 38.9449C16.5219 38.934 15.7448 38.9449 14.5519 38.7206C12.5435 38.135 11.2192 37.1993 10.3108 35.771C9.17808 33.9925 9.49 31.6121 9.49 29.2207C9.49 25.8005 9.41339 22.2435 9.43528 18.7577Z" fill="url(#paint0_linear_2_59)"/>
<path fill-rule="evenodd" clip-rule="evenodd" d="M21.321 19.1571C19.8873 19.5347 19.7779 20.5471 19.7779 22.1778C19.7833 29.8117 19.7012 37.7301 19.7779 45.3092C19.7943 46.8469 20.5549 47.6021 22.12 47.6185C28.9877 47.6678 28.238 48.3846 28.238 39.8424L28.2435 21.3789C28.2326 19.8466 27.4445 19.0915 25.8959 19.086C24.9711 19.086 21.9941 18.982 21.321 19.1571Z" fill="#8B8B8B"/>
<path fill-rule="evenodd" clip-rule="evenodd" d="M42.2799 1.82091C40.9501 0.967228 39.3248 0.381693 37.4095 0.343387C35.1659 0.299609 26.651 0.239414 24.8123 0.354332L24.7959 8.98961C27.3077 9.18114 30.5309 8.72694 32.9004 9.12094C36.419 9.701 37.218 11.7641 37.8856 12.4043C38.1373 13.1869 38.4055 13.5535 38.4985 14.5166C38.6298 17.1324 38.5204 20.0272 38.5204 22.6703C38.5259 25.3846 38.5204 28.0988 38.5259 30.8131C38.5313 34.2497 38.5259 35.1417 36.6106 37.0625C35.1057 38.5837 33.0262 38.9121 30.2572 38.9449L30.2463 47.613C32.5064 47.6076 34.8102 47.6185 37.114 47.6076C40.764 47.5911 44.0638 45.6375 45.6617 42.4417C46.6084 40.5483 46.707 38.9996 46.707 36.5699C46.707 34.6382 46.7836 20.4595 46.7234 13.3018C46.6796 8.60655 46.9641 4.80878 42.2799 1.82091Z" fill="url(#paint1_linear_2_59)"/>
<defs>
<linearGradient id="paint0_linear_2_59" x1="3.09257" y1="23.859" x2="21.2467" y2="24.1875" gradientUnits="userSpaceOnUse">
<stop stop-color="#005F69"/>
<stop offset="1" stop-color="#2B9881"/>
</linearGradient>
<linearGradient id="paint1_linear_2_59" x1="27.0876" y1="21.6683" x2="44.4559" y2="26.2328" gradientUnits="userSpaceOnUse">
<stop stop-color="#009474"/>
<stop offset="1" stop-color="#6DB93A"/>
</linearGradient>
</defs>
</svg>
