<svg width="316" height="357" viewBox="0 0 316 357" fill="none" xmlns="http://www.w3.org/2000/svg">
<path fill-rule="evenodd" clip-rule="evenodd" d="M56.5457 127.562L57.1126 97.704C59.3425 79.9783 72.6084 68.1107 87.6129 63.0462C103.525 57.6416 132.022 61.2321 150.503 60.1738L150.844 0.609344C145.514 -0.0331666 107.606 0.382575 98.9136 0.382575C66.8636 0.382575 39.5758 -3.88823 16.5966 22.9082C12.5148 27.6326 9.18888 32.1301 6.27868 38.6686C0.496088 51.7456 0.571678 64.7848 0.382704 78.7689C-0.184217 117.055 0.382704 202.433 0.382704 214.943C0.382704 236.448 -2.11175 269.368 5.63617 286.98C9.64241 296.126 16.1053 304.933 21.8501 309.808C49.9694 333.619 79.6761 326.853 114.409 326.853L114.069 266.987C105.49 266.911 100.123 266.987 91.8838 265.437C78.0131 261.393 68.8668 254.93 62.5928 245.066C54.7693 232.782 56.9236 216.342 56.9236 199.825C56.9236 176.204 56.3945 151.637 56.5457 127.562Z" fill="url(#paint0_linear_2_58)"/>
<path fill-rule="evenodd" clip-rule="evenodd" d="M138.636 130.321C128.734 132.929 127.978 139.921 127.978 151.184C128.016 203.907 127.449 258.596 127.978 310.942C128.091 321.562 133.345 326.778 144.154 326.891C191.586 327.231 186.408 332.183 186.408 273.185L186.446 145.666C186.371 135.083 180.928 129.867 170.232 129.83C163.845 129.83 143.285 129.111 138.636 130.321Z" fill="#8B8B8B"/>
<path fill-rule="evenodd" clip-rule="evenodd" d="M283.39 10.5872C274.206 4.69117 262.981 0.647138 249.752 0.382575C234.257 0.0802174 175.448 -0.335525 162.749 0.458165L162.635 60.0983C179.983 61.4211 202.244 58.2841 218.609 61.0053C242.912 65.0116 248.43 79.2602 253.04 83.6822C254.779 89.0868 256.631 91.6191 257.274 98.2709C258.181 116.337 257.425 136.33 257.425 154.585C257.462 173.331 257.425 192.077 257.462 210.824C257.5 234.559 257.462 240.719 244.234 253.985C233.841 264.492 219.479 266.76 200.355 266.987L200.279 326.853C215.888 326.816 231.8 326.891 247.711 326.816C272.921 326.702 295.711 313.21 306.747 291.137C313.285 278.06 313.966 267.365 313.966 250.584C313.966 237.242 314.495 139.316 314.079 89.8805C313.777 57.4526 315.742 31.2231 283.39 10.5872Z" fill="url(#paint1_linear_2_58)"/>
<path d="M16.0298 354.595C16.0298 354.784 15.992 354.973 15.9164 355.162C15.8408 355.351 15.7274 355.502 15.6141 355.615C15.4629 355.766 15.3117 355.842 15.1605 355.918C14.9715 355.993 14.7826 356.031 14.5558 356.031H4.20004C3.93548 356.031 3.63312 355.993 3.33076 355.955C3.02841 355.88 2.72605 355.804 2.42369 355.653C2.12133 355.502 1.85677 355.351 1.55441 355.124C1.28985 354.935 1.06308 354.67 0.836311 354.368C0.647337 354.066 0.458364 353.726 0.34498 353.348C0.231595 352.932 0.156006 352.478 0.156006 351.987V344.201C0.156006 343.937 0.193801 343.672 0.26939 343.37C0.307185 343.067 0.420569 342.765 0.533953 342.463C0.685132 342.16 0.836311 341.858 1.06308 341.593C1.28985 341.329 1.51662 341.064 1.81897 340.875C2.12133 340.649 2.46148 340.497 2.87723 340.346C3.25517 340.233 3.70871 340.157 4.20004 340.157H15.8786V343.067H4.20004C3.82209 343.067 3.51974 343.143 3.33076 343.37C3.14179 343.559 3.02841 343.861 3.02841 344.239V351.987C3.02841 352.365 3.14179 352.667 3.33076 352.856C3.55753 353.045 3.82209 353.159 4.20004 353.159H13.1574V349.568H5.48506V346.658H14.5558C14.7826 346.658 14.9715 346.696 15.1605 346.771C15.3117 346.847 15.4629 346.96 15.6141 347.074C15.7274 347.225 15.8408 347.376 15.9164 347.565C15.992 347.716 16.0298 347.905 16.0298 348.094V354.595Z" fill="#182122"/>
<path d="M33.6044 356.031H20.4518C20.2629 356.031 20.0739 355.993 19.8849 355.918C19.6959 355.842 19.5448 355.766 19.4314 355.615C19.318 355.502 19.2046 355.351 19.129 355.162C19.0534 354.973 19.0156 354.784 19.0156 354.595V340.157H21.888V353.159H33.6044V356.031Z" fill="#182122"/>
<path d="M52.1237 349.606C52.1237 350.589 51.9347 351.496 51.5945 352.289C51.2922 353.083 50.8008 353.801 50.2339 354.406C49.6292 354.973 48.9489 355.426 48.1174 355.766C47.3237 356.107 46.4544 356.258 45.5096 356.258H41.5789C40.6341 356.258 39.7648 356.107 38.9333 355.766C38.1396 355.426 37.4593 354.973 36.8546 354.406C36.2499 353.801 35.7963 353.083 35.4562 352.289C35.116 351.496 34.9648 350.589 34.9648 349.606V346.582C34.9648 345.637 35.116 344.73 35.4562 343.937C35.7963 343.105 36.2499 342.425 36.8546 341.82C37.4593 341.253 38.1396 340.8 38.9333 340.46C39.7648 340.119 40.6341 339.968 41.5789 339.968H45.5096C46.4544 339.968 47.3237 340.119 48.1174 340.46C48.9489 340.8 49.6292 341.253 50.2339 341.82C50.8008 342.425 51.2922 343.105 51.5945 343.937C51.9347 344.73 52.1237 345.637 52.1237 346.582V349.606ZM49.2135 346.582C49.2135 346.015 49.1379 345.524 48.9489 345.033C48.7599 344.579 48.5332 344.201 48.193 343.861C47.8528 343.521 47.4749 343.294 47.0214 343.105C46.53 342.916 46.0387 342.841 45.5096 342.841H41.5789C41.0498 342.841 40.5207 342.916 40.0671 343.105C39.6136 343.294 39.1979 343.521 38.8577 343.861C38.5553 344.201 38.2908 344.579 38.1018 345.033C37.9128 345.524 37.8372 346.015 37.8372 346.582V349.606C37.8372 350.173 37.9128 350.702 38.1018 351.156C38.2908 351.609 38.5553 352.025 38.8577 352.365C39.1979 352.667 39.6136 352.932 40.0671 353.121C40.5207 353.31 41.0498 353.385 41.5789 353.385H45.4718C46.0387 353.385 46.53 353.31 46.9836 353.121C47.4749 352.932 47.8528 352.667 48.193 352.365C48.5332 352.025 48.7599 351.609 48.9489 351.156C49.1379 350.702 49.2135 350.173 49.2135 349.606V346.582Z" fill="#182122"/>
<path d="M70.7942 352.554C70.7942 352.894 70.7186 353.272 70.6052 353.688C70.4918 354.103 70.2651 354.481 70.0005 354.822C69.7359 355.162 69.358 355.464 68.9045 355.691C68.4887 355.918 67.9218 356.031 67.2793 356.031H56.3566C56.1676 356.031 55.9787 355.993 55.7897 355.918C55.6385 355.842 55.4873 355.766 55.3362 355.615C55.2228 355.502 55.1094 355.351 55.0338 355.162C54.9582 354.973 54.9204 354.784 54.9204 354.595V341.631C54.9204 341.442 54.9582 341.253 55.0338 341.064C55.1094 340.875 55.2228 340.724 55.3362 340.611C55.4873 340.46 55.6385 340.346 55.7897 340.271C55.9787 340.195 56.1676 340.157 56.3566 340.157H65.9943C66.3722 340.157 66.7502 340.233 67.1281 340.346C67.5439 340.497 67.9218 340.686 68.262 340.951C68.6399 341.253 68.9045 341.593 69.1312 342.047C69.3958 342.5 69.5092 343.03 69.5092 343.672V344.201C69.5092 344.73 69.3958 345.26 69.2446 345.864C69.0556 346.431 68.7911 346.998 68.4131 347.527C68.7533 347.716 69.0556 347.943 69.3202 348.245C69.6226 348.51 69.8871 348.85 70.0761 349.228C70.3029 349.568 70.454 349.984 70.6052 350.475C70.7186 350.929 70.7942 351.458 70.7942 351.987V352.554ZM67.884 351.987C67.884 351.609 67.8462 351.307 67.7328 351.004C67.6194 350.702 67.4305 350.437 67.2415 350.211C67.0147 350.022 66.7502 349.833 66.4478 349.719C66.1454 349.606 65.8053 349.568 65.4273 349.568H58.9644V346.658H64.1423C64.5203 346.658 64.8604 346.582 65.1628 346.469C65.4651 346.356 65.7297 346.204 65.9187 345.978C66.1454 345.789 66.2966 345.524 66.41 345.222C66.5234 344.919 66.599 344.579 66.599 344.201V343.672C66.599 343.256 66.41 343.067 65.9943 343.067H57.7928V353.159H67.2793C67.3549 353.159 67.3927 353.159 67.4683 353.159C67.5439 353.159 67.6194 353.121 67.695 353.083C67.7328 353.045 67.8084 352.97 67.8462 352.894C67.884 352.818 67.884 352.667 67.884 352.516V351.987Z" fill="#182122"/>
<path d="M88.8601 356.031H85.9499V352.138H75.8587V356.031H72.9863V348.094C72.9863 346.96 73.1753 345.864 73.591 344.919C73.969 343.937 74.5359 343.105 75.2162 342.387C75.9343 341.707 76.7658 341.14 77.7485 340.762C78.7311 340.384 79.7516 340.157 80.9232 340.157H87.3861C87.5751 340.157 87.7641 340.195 87.953 340.271C88.142 340.346 88.2932 340.46 88.4066 340.611C88.5578 340.724 88.6711 340.875 88.7467 341.064C88.8223 341.253 88.8601 341.442 88.8601 341.631V356.031ZM75.8587 349.266H85.9499V343.067H80.9232C80.8098 343.067 80.6209 343.067 80.3563 343.105C80.0539 343.105 79.7516 343.181 79.3736 343.294C78.9957 343.37 78.6177 343.559 78.202 343.748C77.7863 343.974 77.4083 344.277 77.0304 344.655C76.6902 345.033 76.4256 345.486 76.1989 346.053C75.9721 346.62 75.8587 347.3 75.8587 348.094V349.266Z" fill="#182122"/>
<path d="M106.737 356.031H93.6222C93.4333 356.031 93.2443 355.993 93.0553 355.918C92.8663 355.842 92.7152 355.766 92.6018 355.615C92.4506 355.502 92.375 355.351 92.2994 355.162C92.2238 354.973 92.186 354.784 92.186 354.595V340.157H95.0584V353.159H106.737V356.031Z" fill="#182122"/>
<path d="M131.833 349.417C131.833 350.362 131.644 351.269 131.341 352.063C131.001 352.894 130.51 353.574 129.943 354.179C129.338 354.746 128.658 355.2 127.827 355.54C127.033 355.88 126.126 356.031 125.181 356.031H117.433C117.206 356.031 117.017 355.993 116.866 355.918C116.677 355.842 116.526 355.766 116.375 355.615C116.261 355.502 116.148 355.351 116.072 355.162C115.997 354.973 115.997 354.784 115.997 354.595V341.631C115.997 341.442 115.997 341.253 116.072 341.064C116.148 340.875 116.261 340.724 116.375 340.611C116.526 340.46 116.677 340.346 116.866 340.271C117.017 340.195 117.206 340.157 117.433 340.157H125.181C126.126 340.157 127.033 340.346 127.827 340.686C128.658 340.989 129.338 341.48 129.943 342.047C130.51 342.652 131.001 343.332 131.341 344.163C131.644 344.957 131.833 345.864 131.833 346.809V349.417ZM128.96 346.809C128.96 346.242 128.847 345.751 128.696 345.26C128.507 344.806 128.242 344.428 127.902 344.088C127.6 343.748 127.184 343.521 126.731 343.332C126.277 343.143 125.748 343.067 125.181 343.067H118.869V353.159H125.181C125.748 353.159 126.277 353.083 126.731 352.894C127.184 352.705 127.6 352.441 127.902 352.138C128.242 351.798 128.507 351.42 128.696 350.929C128.847 350.475 128.96 349.984 128.96 349.417V346.809Z" fill="#182122"/>
<path d="M137.54 356.031H134.667V340.157H137.54V356.031Z" fill="#182122"/>
<path d="M156.551 354.595C156.551 354.784 156.513 354.973 156.437 355.162C156.362 355.351 156.286 355.502 156.135 355.615C156.021 355.766 155.87 355.842 155.681 355.918C155.53 355.993 155.303 356.031 155.114 356.031H144.721C144.456 356.031 144.192 355.993 143.889 355.955C143.587 355.88 143.285 355.804 142.982 355.653C142.68 355.502 142.378 355.351 142.113 355.124C141.848 354.935 141.584 354.67 141.395 354.368C141.168 354.066 141.017 353.726 140.904 353.348C140.752 352.932 140.715 352.478 140.715 351.987V344.201C140.715 343.937 140.715 343.672 140.79 343.37C140.866 343.067 140.941 342.765 141.093 342.463C141.206 342.16 141.395 341.858 141.622 341.593C141.811 341.329 142.075 341.064 142.378 340.875C142.68 340.649 143.02 340.497 143.398 340.346C143.814 340.233 144.23 340.157 144.721 340.157H156.437V343.067H144.721C144.343 343.067 144.078 343.143 143.889 343.37C143.663 343.559 143.587 343.861 143.587 344.239V351.987C143.587 352.365 143.663 352.667 143.889 352.856C144.078 353.045 144.381 353.159 144.721 353.159H153.678V349.568H146.044V346.658H155.114C155.303 346.658 155.53 346.696 155.681 346.771C155.87 346.847 156.021 346.96 156.135 347.074C156.286 347.225 156.362 347.376 156.437 347.565C156.513 347.716 156.551 347.905 156.551 348.094V354.595Z" fill="#182122"/>
<path d="M162.447 356.031H159.574V340.157H162.447V356.031Z" fill="#182122"/>
<path d="M180.172 343.067H173.823V356.031H170.95V343.067H164.601V340.157H180.172V343.067Z" fill="#182122"/>
<path d="M197.293 356.031H194.421V352.138H184.292V356.031H181.419V348.094C181.419 346.96 181.608 345.864 182.024 344.919C182.402 343.937 182.969 343.105 183.687 342.387C184.367 341.707 185.237 341.14 186.182 340.762C187.164 340.384 188.222 340.157 189.356 340.157H195.819C196.046 340.157 196.235 340.195 196.386 340.271C196.575 340.346 196.726 340.46 196.877 340.611C196.991 340.724 197.104 340.875 197.18 341.064C197.255 341.253 197.293 341.442 197.293 341.631V356.031ZM184.292 349.266H194.421V343.067H189.356C189.243 343.067 189.092 343.067 188.789 343.105C188.525 343.105 188.185 343.181 187.807 343.294C187.429 343.37 187.051 343.559 186.635 343.748C186.219 343.974 185.841 344.277 185.501 344.655C185.161 345.033 184.859 345.486 184.632 346.053C184.405 346.62 184.292 347.3 184.292 348.094V349.266Z" fill="#182122"/>
<path d="M215.208 356.031H202.055C201.866 356.031 201.677 355.993 201.488 355.918C201.337 355.842 201.148 355.766 201.035 355.615C200.921 355.502 200.808 355.351 200.733 355.162C200.657 354.973 200.619 354.784 200.619 354.595V340.157H203.492V353.159H215.208V356.031Z" fill="#182122"/>
<path d="M240.304 354.822C240.304 355.011 240.266 355.2 240.19 355.389C240.077 355.577 240.001 355.729 239.85 355.842C239.737 355.993 239.586 356.069 239.397 356.144C239.245 356.22 239.056 356.258 238.83 356.258C238.679 356.258 238.49 356.22 238.301 356.144C238.112 356.107 237.96 355.993 237.809 355.842L227.302 344.882V356.031H224.43V341.404C224.43 341.102 224.506 340.838 224.694 340.611C224.846 340.346 225.072 340.195 225.337 340.082C225.602 339.968 225.866 339.93 226.168 339.968C226.471 340.044 226.698 340.157 226.924 340.384L237.431 351.344V340.157H240.304V354.822Z" fill="#182122"/>
<path d="M256.669 349.568H247.598V346.658H256.669V349.568ZM257.954 356.031H247.598C247.182 356.031 246.767 355.955 246.275 355.842C245.822 355.691 245.368 355.464 244.99 355.124C244.574 354.822 244.234 354.406 243.97 353.877C243.705 353.385 243.554 352.743 243.554 351.987V341.631C243.554 341.442 243.592 341.253 243.667 341.064C243.743 340.875 243.856 340.724 243.97 340.611C244.121 340.46 244.272 340.346 244.423 340.271C244.612 340.195 244.801 340.157 245.028 340.157H257.954V343.067H246.426V351.987C246.426 352.365 246.54 352.667 246.729 352.856C246.955 353.045 247.22 353.159 247.598 353.159H257.954V356.031Z" fill="#182122"/>
<path d="M276.284 354.595C276.284 354.784 276.246 354.973 276.171 355.162C276.095 355.351 275.982 355.502 275.868 355.615C275.717 355.766 275.566 355.842 275.415 355.918C275.226 355.993 275.037 356.031 274.848 356.031H268.347C267.743 356.031 267.138 355.955 266.495 355.842C265.853 355.691 265.248 355.502 264.681 355.237C264.076 354.935 263.547 354.595 263.018 354.179C262.489 353.726 262.073 353.234 261.658 352.629C261.28 352.063 260.977 351.382 260.751 350.626C260.524 349.87 260.41 349.039 260.41 348.094V340.157H263.283V348.094C263.283 348.926 263.396 349.606 263.623 350.173C263.85 350.74 264.152 351.193 264.492 351.571C264.832 351.949 265.21 352.252 265.626 352.441C266.042 352.667 266.458 352.818 266.798 352.932C267.176 353.045 267.516 353.083 267.78 353.121C268.083 353.159 268.272 353.159 268.347 353.159H273.412V340.157H276.284V354.595Z" fill="#182122"/>
<path d="M295.484 345.524C295.484 346.167 295.408 346.734 295.219 347.263C295.068 347.792 294.841 348.245 294.577 348.623C294.312 349.039 293.972 349.379 293.632 349.644C293.254 349.908 292.876 350.173 292.498 350.324C292.082 350.513 291.704 350.664 291.289 350.74C290.873 350.815 290.495 350.853 290.155 350.853L296.164 356.031H291.704L285.733 350.853H283.654V347.981H290.155C290.533 347.943 290.835 347.867 291.138 347.754C291.44 347.641 291.704 347.452 291.931 347.263C292.158 347.036 292.309 346.809 292.423 346.507C292.536 346.204 292.611 345.902 292.611 345.524V343.71C292.611 343.521 292.574 343.408 292.536 343.332C292.498 343.256 292.46 343.181 292.385 343.143C292.309 343.105 292.271 343.067 292.196 343.067C292.12 343.067 292.045 343.067 292.007 343.067H282.52V356.031H279.61V341.631C279.61 341.442 279.648 341.253 279.723 341.064C279.799 340.875 279.912 340.724 280.026 340.611C280.177 340.46 280.328 340.346 280.517 340.271C280.668 340.195 280.857 340.157 281.084 340.157H292.007C292.649 340.157 293.178 340.308 293.632 340.535C294.048 340.762 294.426 341.064 294.69 341.404C294.993 341.745 295.182 342.123 295.295 342.538C295.408 342.954 295.484 343.332 295.484 343.672V345.524Z" fill="#182122"/>
<path d="M315.024 349.606C315.024 350.589 314.835 351.496 314.532 352.289C314.192 353.083 313.739 353.801 313.134 354.406C312.529 354.973 311.849 355.426 311.055 355.766C310.224 356.107 309.355 356.258 308.41 356.258H304.517C303.572 356.258 302.665 356.107 301.871 355.766C301.04 355.426 300.359 354.973 299.755 354.406C299.188 353.801 298.696 353.083 298.356 352.289C298.054 351.496 297.865 350.589 297.865 349.606V346.582C297.865 345.637 298.054 344.73 298.356 343.937C298.696 343.105 299.188 342.425 299.755 341.82C300.359 341.253 301.04 340.8 301.871 340.46C302.665 340.119 303.572 339.968 304.517 339.968H308.41C309.355 339.968 310.224 340.119 311.055 340.46C311.849 340.8 312.529 341.253 313.134 341.82C313.739 342.425 314.192 343.105 314.532 343.937C314.835 344.73 315.024 345.637 315.024 346.582V349.606ZM312.151 346.582C312.151 346.015 312.038 345.524 311.887 345.033C311.698 344.579 311.433 344.201 311.093 343.861C310.791 343.521 310.375 343.294 309.922 343.105C309.468 342.916 308.939 342.841 308.41 342.841H304.517C303.95 342.841 303.421 342.916 302.967 343.105C302.514 343.294 302.136 343.521 301.796 343.861C301.455 344.201 301.191 344.579 301.002 345.033C300.851 345.524 300.737 346.015 300.737 346.582V349.606C300.737 350.173 300.851 350.702 301.002 351.156C301.191 351.609 301.455 352.025 301.796 352.365C302.136 352.667 302.514 352.932 302.967 353.121C303.421 353.31 303.95 353.385 304.517 353.385H308.372C308.939 353.385 309.468 353.31 309.922 353.121C310.375 352.932 310.753 352.667 311.093 352.365C311.433 352.025 311.698 351.609 311.887 351.156C312.038 350.702 312.151 350.173 312.151 349.606V346.582Z" fill="#182122"/>
<defs>
<linearGradient id="paint0_linear_2_58" x1="12.7393" y1="162.794" x2="138.122" y2="165.063" gradientUnits="userSpaceOnUse">
<stop stop-color="#005F69"/>
<stop offset="1" stop-color="#2B9881"/>
</linearGradient>
<linearGradient id="paint1_linear_2_58" x1="178.463" y1="147.664" x2="298.418" y2="179.19" gradientUnits="userSpaceOnUse">
<stop stop-color="#009474"/>
<stop offset="1" stop-color="#6DB93A"/>
</linearGradient>
</defs>
</svg>
