<svg width="902" height="328" viewBox="0 0 902 328" fill="none" xmlns="http://www.w3.org/2000/svg">
<path fill-rule="evenodd" clip-rule="evenodd" d="M56.545 127.55L57.1247 97.7136C59.3276 80.0129 72.6224 68.1094 87.6178 63.0466C103.541 57.6745 132.024 61.2301 150.536 60.1866L150.845 0.591837C145.512 -0.0265268 107.599 0.35995 98.9029 0.35995C66.8639 0.35995 39.5786 -3.8913 16.5832 22.9302C12.5252 27.6452 9.20153 32.1284 6.30295 38.6598C0.505792 51.7614 0.583087 64.7857 0.389849 78.7762C-0.189867 117.037 0.389849 202.449 0.389849 214.932C0.389849 236.459 -2.12225 269.387 5.60729 286.971C9.6653 296.17 16.0808 304.981 21.8393 309.851C49.9749 333.619 79.6563 326.895 114.439 326.856L114.053 267.029C105.512 266.913 100.14 266.991 91.869 265.445C77.9945 261.387 68.8736 254.971 62.6127 245.077C54.7672 232.787 56.9315 216.362 56.9315 199.859C56.9315 176.207 56.3904 151.666 56.545 127.55Z" fill="url(#paint0_linear_2_30)"/>
<path fill-rule="evenodd" clip-rule="evenodd" d="M138.671 130.332C128.739 132.922 127.966 139.917 127.966 151.163C128.005 203.918 127.464 258.604 128.005 310.972C128.082 321.6 133.338 326.817 144.159 326.895C191.58 327.281 186.44 332.228 186.44 273.213V145.675C186.363 135.125 180.913 129.907 170.247 129.868C163.831 129.83 143.309 129.134 138.671 130.332Z" fill="#8B8B8B"/>
<path fill-rule="evenodd" clip-rule="evenodd" d="M283.407 10.563C274.209 4.6885 262.963 0.669142 249.784 0.398608C234.247 0.0894259 175.425 -0.335699 162.749 0.437255L162.633 60.1093C179.986 61.4234 202.247 58.2929 218.595 60.9982C242.943 65.0176 248.431 79.2786 253.069 83.6845C254.769 89.0951 256.663 91.6072 257.281 98.2933C258.209 116.342 257.436 136.361 257.436 154.603C257.436 173.347 257.436 192.091 257.475 210.835C257.513 234.565 257.475 240.71 244.257 254.005C233.822 264.478 219.484 266.797 200.392 266.991L200.276 326.856C215.89 326.817 231.812 326.895 247.697 326.817C272.934 326.701 295.697 313.213 306.75 291.145C313.321 278.082 313.978 267.377 313.978 250.604C313.978 237.271 314.48 139.337 314.093 89.9067C313.784 57.4426 315.755 31.2395 283.407 10.563Z" fill="url(#paint1_linear_2_30)"/>
<path d="M426.056 89.984C426.056 91.0661 425.863 92.071 425.476 92.9985C425.09 93.9261 424.549 94.7377 423.892 95.3947C423.235 96.0903 422.423 96.5928 421.495 97.0179C420.568 97.3657 419.563 97.5976 418.481 97.5976H364.142C362.751 97.5976 361.244 97.4044 359.659 97.0952C358.036 96.786 356.451 96.2449 354.905 95.5493C353.36 94.8536 351.852 93.9647 350.422 92.8439C348.992 91.7618 347.717 90.4091 346.635 88.8632C345.514 87.3173 344.664 85.4622 344.007 83.4139C343.311 81.3656 343.002 79.0081 343.002 76.4573V35.6453C343.002 34.254 343.157 32.7854 343.504 31.1622C343.814 29.5776 344.316 27.9931 345.012 26.4085C345.707 24.8626 346.635 23.3553 347.756 21.9254C348.876 20.4954 350.19 19.2587 351.775 18.1379C353.36 17.0171 355.137 16.1669 357.186 15.5098C359.234 14.8528 361.553 14.505 364.142 14.505H425.36V29.5776H364.142C362.171 29.5776 360.664 30.08 359.62 31.1622C358.577 32.167 358.036 33.7129 358.036 35.7613V76.4573C358.036 78.351 358.577 79.8583 359.659 80.9404C360.703 81.9839 362.21 82.525 364.142 82.525H410.983V63.6263H370.906V48.4764H418.481C419.563 48.4764 420.568 48.6696 421.495 49.0561C422.423 49.4812 423.235 50.0223 423.892 50.7179C424.549 51.4136 425.09 52.2252 425.476 53.1141C425.863 54.0416 426.056 55.0078 426.056 56.0513V89.984Z" fill="#182122"/>
<path d="M518.037 97.5976H449.322C448.278 97.5976 447.273 97.3657 446.346 97.0179C445.418 96.5928 444.607 96.0903 443.911 95.3947C443.254 94.7377 442.713 93.9261 442.327 92.9985C441.94 92.071 441.747 91.0661 441.747 89.984V14.505H456.819V82.525H518.037V97.5976Z" fill="#182122"/>
<path d="M615.043 63.9741C615.043 69.0369 614.154 73.7133 612.415 77.9646C610.676 82.2158 608.28 85.8487 605.188 88.9405C602.058 92.0323 598.425 94.4285 594.173 96.1677C589.961 97.8682 585.362 98.757 580.376 98.757H559.97C554.985 98.757 550.385 97.8682 546.134 96.1677C541.883 94.4285 538.25 92.0323 535.158 88.9405C532.028 85.8487 529.632 82.2158 527.854 77.9646C526.115 73.7133 525.226 69.0369 525.226 63.9741V48.1285C525.226 43.1043 526.115 38.428 527.854 34.1767C529.632 29.9255 532.028 26.2539 535.158 23.1621C538.25 20.1089 541.883 17.7128 546.134 15.9736C550.385 14.2345 554.985 13.3456 559.97 13.3456H580.376C585.362 13.3456 589.961 14.2345 594.173 15.9736C598.425 17.7128 602.058 20.1089 605.188 23.1621C608.28 26.2539 610.676 29.9255 612.415 34.1767C614.154 38.428 615.043 43.1043 615.043 48.1285V63.9741ZM599.971 48.1285C599.971 45.1527 599.468 42.4473 598.541 40.0125C597.574 37.6164 596.26 35.568 594.56 33.8289C592.821 32.1284 590.772 30.7757 588.338 29.8482C585.903 28.882 583.275 28.4182 580.376 28.4182H559.97C557.072 28.4182 554.366 28.882 551.97 29.8482C549.574 30.7757 547.487 32.1284 545.748 33.8289C544.009 35.568 542.656 37.6164 541.728 40.0125C540.762 42.4473 540.298 45.1527 540.298 48.1285V63.9741C540.298 66.95 540.762 69.6553 541.728 72.0515C542.656 74.4863 544.009 76.5346 545.748 78.2738C547.487 79.9743 549.574 81.3269 551.97 82.2545C554.366 83.2207 557.072 83.6844 559.97 83.6844H580.26C583.197 83.6844 585.864 83.2207 588.299 82.2545C590.695 81.3269 592.782 79.9743 594.521 78.2738C596.26 76.5346 597.574 74.4863 598.541 72.0515C599.468 69.6553 599.971 66.95 599.971 63.9741V48.1285Z" fill="#182122"/>
<path d="M712.783 79.3172C712.783 81.1723 712.474 83.182 711.817 85.3076C711.199 87.4333 710.155 89.4043 708.687 91.2207C707.257 93.0372 705.402 94.5444 703.083 95.7425C700.725 96.9792 697.904 97.5976 694.542 97.5976H637.382C636.299 97.5976 635.295 97.3657 634.367 97.0179C633.44 96.5928 632.628 96.0903 631.932 95.3947C631.275 94.7377 630.734 93.9261 630.386 92.9985C629.961 92.071 629.807 91.0661 629.807 89.984V22.1186C629.807 21.0751 629.961 20.0703 630.386 19.1427C630.734 18.2152 631.275 17.4036 631.932 16.7079C632.628 16.0123 633.44 15.4712 634.367 15.0847C635.295 14.6982 636.299 14.505 637.382 14.505H687.778C689.633 14.505 691.604 14.8528 693.73 15.5098C695.856 16.1669 697.827 17.2103 699.682 18.6403C701.498 20.1089 703.044 22.0027 704.242 24.3215C705.479 26.6017 706.059 29.4617 706.059 32.824V35.6453C706.059 38.312 705.633 41.1719 704.745 44.2638C703.856 47.3556 702.426 50.2155 700.455 52.9595C702.155 54.0416 703.74 55.2784 705.208 56.747C706.716 58.2156 708.03 59.9161 709.15 61.8485C710.271 63.7809 711.16 65.9451 711.817 68.3799C712.474 70.8147 712.783 73.4814 712.783 76.4573V79.3172ZM697.749 76.4573C697.749 74.4863 697.402 72.7085 696.783 71.1626C696.203 69.578 695.315 68.2253 694.194 67.1046C693.073 65.9838 691.72 65.1335 690.136 64.5538C688.551 63.9354 686.773 63.6263 684.802 63.6263H650.87V48.4764H678.039C680.01 48.4764 681.788 48.1672 683.372 47.5488C684.957 46.9691 686.31 46.0802 687.43 44.9981C688.551 43.8773 689.401 42.5246 689.981 40.94C690.6 39.3941 690.909 37.6163 690.909 35.6453V32.824C690.909 30.6598 689.865 29.5776 687.778 29.5776H644.841V82.525H694.542C694.812 82.525 695.16 82.4863 695.546 82.4477C695.894 82.4091 696.281 82.2931 696.59 82.0999C696.899 81.9066 697.17 81.5975 697.402 81.1337C697.595 80.6699 697.749 80.0129 697.749 79.2013V76.4573Z" fill="#182122"/>
<path d="M807.393 97.5976H792.32V77.1916H739.373V97.5976H724.3V56.0513C724.3 49.9836 725.344 44.3797 727.431 39.3168C729.518 34.2153 732.416 29.8095 736.126 26.1766C739.837 22.5051 744.204 19.6452 749.267 17.5968C754.33 15.5485 759.856 14.505 765.847 14.505H799.779C800.823 14.505 801.828 14.6982 802.755 15.0847C803.683 15.4712 804.494 16.0123 805.19 16.7079C805.847 17.4036 806.427 18.2152 806.775 19.1427C807.2 20.0703 807.393 21.0751 807.393 22.1186V97.5976ZM739.373 62.119H792.32V29.5776H765.847C765.383 29.5776 764.417 29.6549 762.909 29.7709C761.441 29.9254 759.702 30.2733 757.769 30.7757C755.837 31.3168 753.75 32.167 751.586 33.2878C749.421 34.4086 747.45 35.9545 745.634 37.9255C743.817 39.8966 742.31 42.37 741.112 45.3072C739.953 48.2445 739.373 51.8387 739.373 56.0513V62.119Z" fill="#182122"/>
<path d="M901.152 97.5976H832.475C831.393 97.5976 830.388 97.3657 829.461 97.0179C828.533 96.5928 827.722 96.0903 827.026 95.3947C826.369 94.7377 825.828 93.9261 825.442 92.9985C825.055 92.071 824.862 91.0661 824.862 89.984V14.505H839.934V82.525H901.152V97.5976Z" fill="#182122"/>
<path d="M426.983 177.328C426.983 182.391 426.095 187.028 424.355 191.28C422.616 195.531 420.181 199.203 417.09 202.256C413.998 205.348 410.326 207.744 406.075 209.483C401.824 211.222 397.225 212.072 392.239 212.072H351.582C350.5 212.072 349.495 211.879 348.567 211.492C347.64 211.106 346.828 210.565 346.132 209.908C345.475 209.251 344.934 208.439 344.548 207.512C344.161 206.584 344.007 205.579 344.007 204.497V136.632C344.007 135.55 344.161 134.584 344.548 133.656C344.934 132.728 345.475 131.917 346.132 131.221C346.828 130.526 347.64 129.984 348.567 129.598C349.495 129.211 350.5 129.018 351.582 129.018H392.239C397.225 129.018 401.824 129.907 406.075 131.646C410.326 133.385 413.998 135.782 417.09 138.835C420.181 141.927 422.616 145.559 424.355 149.849C426.095 154.101 426.983 158.777 426.983 163.763V177.328ZM411.911 163.763C411.911 160.825 411.447 158.159 410.52 155.724C409.553 153.289 408.239 151.202 406.5 149.502C404.761 147.801 402.674 146.448 400.278 145.482C397.843 144.555 395.176 144.052 392.239 144.052H359.041V197H392.239C395.176 197 397.843 196.536 400.278 195.608C402.674 194.681 404.761 193.328 406.5 191.589C408.239 189.888 409.553 187.84 410.52 185.405C411.447 183.009 411.911 180.304 411.911 177.328V163.763Z" fill="#182122"/>
<path d="M456.935 212.072H441.863V129.018H456.935V212.072Z" fill="#182122"/>
<path d="M556.492 204.497C556.492 205.579 556.299 206.584 555.912 207.512C555.526 208.439 554.985 209.251 554.328 209.908C553.671 210.565 552.859 211.106 551.932 211.492C551.004 211.879 549.999 212.072 548.917 212.072H494.578C493.187 212.072 491.68 211.918 490.095 211.608C488.472 211.261 486.887 210.758 485.341 210.063C483.796 209.367 482.288 208.478 480.858 207.357C479.428 206.275 478.153 204.922 477.071 203.376C475.95 201.792 475.061 199.975 474.443 197.927C473.747 195.84 473.438 193.521 473.438 190.932V150.159C473.438 148.767 473.593 147.26 473.94 145.675C474.25 144.052 474.752 142.506 475.448 140.922C476.143 139.376 477.071 137.869 478.192 136.439C479.312 135.009 480.626 133.733 482.211 132.651C483.796 131.53 485.573 130.68 487.622 130.023C489.67 129.327 491.989 129.018 494.578 129.018H555.796V144.052H494.578C492.607 144.052 491.1 144.593 490.057 145.637C489.013 146.68 488.472 148.226 488.472 150.274V190.932C488.472 192.864 489.013 194.372 490.095 195.454C491.139 196.497 492.646 197 494.578 197H541.419V178.14H501.342V162.99H548.917C549.999 162.99 551.004 163.183 551.932 163.569C552.859 163.994 553.671 164.536 554.328 165.231C554.985 165.927 555.526 166.738 555.912 167.627C556.299 168.516 556.492 169.521 556.492 170.526V204.497Z" fill="#182122"/>
<path d="M587.371 212.072H572.299V129.018H587.371V212.072Z" fill="#182122"/>
<path d="M680.049 144.052H646.85V212.072H631.778V144.052H598.541V129.018H680.049V144.052Z" fill="#182122"/>
<path d="M769.711 212.072H754.639V191.705H701.691V212.072H686.657V170.526C686.657 164.497 687.701 158.893 689.749 153.83C691.875 148.729 694.735 144.323 698.445 140.651C702.155 136.98 706.561 134.158 711.624 132.071C716.687 130.062 722.175 129.018 728.165 129.018H762.136C763.141 129.018 764.146 129.211 765.074 129.598C766.001 129.984 766.813 130.526 767.509 131.221C768.204 131.917 768.745 132.728 769.132 133.656C769.518 134.584 769.711 135.55 769.711 136.632V212.072ZM701.691 176.632H754.639V144.052H728.165C727.701 144.052 726.735 144.13 725.267 144.284C723.759 144.439 722.059 144.748 720.088 145.289C718.155 145.83 716.107 146.642 713.943 147.801C711.778 148.922 709.769 150.468 707.952 152.4C706.136 154.371 704.667 156.845 703.469 159.82C702.31 162.758 701.691 166.313 701.691 170.526V176.632Z" fill="#182122"/>
<path d="M863.509 212.072H794.794C793.712 212.072 792.707 211.879 791.779 211.492C790.852 211.106 790.04 210.565 789.383 209.908C788.687 209.251 788.185 208.439 787.799 207.512C787.412 206.584 787.18 205.579 787.18 204.497V129.018H802.253V197H863.509V212.072Z" fill="#182122"/>
<path d="M427.099 320.17C427.099 321.213 426.906 322.218 426.52 323.184C426.094 324.112 425.553 324.924 424.896 325.581C424.201 326.238 423.389 326.779 422.462 327.165C421.534 327.552 420.568 327.745 419.524 327.745C418.597 327.745 417.669 327.59 416.703 327.204C415.776 326.895 414.925 326.315 414.191 325.542L359.157 268.073V326.585H344.084V249.947C344.084 248.401 344.509 247.01 345.398 245.773C346.248 244.498 347.369 243.57 348.722 242.952C350.152 242.372 351.62 242.217 353.128 242.527C354.635 242.797 355.949 243.493 357.031 244.614L412.065 302.044V243.531H427.099V320.17Z" fill="#182122"/>
<path d="M512.897 292.653H465.322V277.464H512.897V292.653ZM519.661 326.585H465.322C463.274 326.585 460.993 326.199 458.52 325.465C456.047 324.73 453.728 323.532 451.641 321.87C449.554 320.17 447.776 318.006 446.385 315.3C444.955 312.634 444.259 309.349 444.259 305.445V251.106C444.259 250.063 444.452 249.097 444.839 248.169C445.225 247.242 445.728 246.43 446.423 245.734C447.119 245.039 447.892 244.498 448.819 244.111C449.747 243.725 450.752 243.531 451.834 243.531H519.661V258.565H459.332V305.445C459.332 307.416 459.834 308.923 460.878 309.967C461.921 311.01 463.467 311.513 465.438 311.513H519.661V326.585Z" fill="#182122"/>
<path d="M615.584 319.01C615.584 320.093 615.391 321.097 615.005 322.025C614.618 322.914 614.077 323.725 613.381 324.421C612.686 325.078 611.874 325.619 610.947 326.006C610.019 326.392 609.053 326.585 608.009 326.585H574.077C570.869 326.585 567.622 326.238 564.337 325.542C561.052 324.846 557.883 323.764 554.791 322.334C551.738 320.866 548.84 319.049 546.134 316.808C543.429 314.566 541.071 311.899 539.023 308.846C537.013 305.754 535.429 302.237 534.269 298.295C533.11 294.353 532.53 289.909 532.53 285.039V243.531H547.564V285.039C547.564 289.29 548.183 292.885 549.381 295.822C550.54 298.759 552.047 301.232 553.864 303.165C555.642 305.136 557.651 306.682 559.816 307.841C561.98 308.923 564.028 309.774 565.961 310.315C567.932 310.856 569.632 311.204 571.139 311.32C572.608 311.474 573.613 311.513 574.077 311.513H600.55V243.531H615.584V319.01Z" fill="#182122"/>
<path d="M716.107 271.435C716.107 274.875 715.682 277.967 714.832 280.672C713.981 283.339 712.822 285.735 711.392 287.822C709.923 289.87 708.262 291.648 706.368 293.116C704.474 294.585 702.503 295.783 700.416 296.749C698.368 297.677 696.281 298.334 694.155 298.798C692.068 299.184 690.097 299.416 688.203 299.416L719.663 326.585H696.397L665.015 299.416H654.155V284.343H688.203C690.136 284.189 691.875 283.802 693.421 283.184C694.967 282.527 696.319 281.677 697.479 280.595C698.6 279.512 699.489 278.198 700.107 276.691C700.725 275.145 701.034 273.406 701.034 271.435V261.928C701.034 261.077 700.919 260.459 700.725 259.995C700.493 259.57 700.223 259.222 699.914 259.029C699.566 258.797 699.218 258.681 698.87 258.643C698.484 258.604 698.136 258.565 697.865 258.565H648.126V326.585H633.092V251.106C633.092 250.063 633.285 249.097 633.672 248.169C634.058 247.242 634.56 246.43 635.256 245.734C635.913 245.039 636.725 244.498 637.652 244.111C638.58 243.725 639.585 243.531 640.667 243.531H697.865C701.228 243.531 704.049 244.15 706.368 245.348C708.687 246.585 710.58 248.092 712.01 249.947C713.44 251.763 714.484 253.734 715.141 255.86C715.798 257.986 716.107 259.957 716.107 261.85V271.435Z" fill="#182122"/>
<path d="M818.408 293.001C818.408 298.063 817.519 302.701 815.78 306.952C814.04 311.204 811.644 314.875 808.552 317.928C805.461 321.059 801.789 323.455 797.576 325.155C793.364 326.895 788.726 327.745 783.741 327.745H763.335C758.388 327.745 753.75 326.895 749.499 325.155C745.247 323.455 741.615 321.059 738.523 317.928C735.431 314.875 732.996 311.204 731.257 306.952C729.479 302.701 728.629 298.063 728.629 293.001V277.116C728.629 272.092 729.479 267.454 731.257 263.164C732.996 258.913 735.431 255.242 738.523 252.189C741.615 249.135 745.247 246.701 749.499 244.961C753.75 243.222 758.388 242.372 763.335 242.372H783.741C788.726 242.372 793.364 243.222 797.576 244.961C801.789 246.701 805.461 249.135 808.552 252.189C811.644 255.242 814.04 258.913 815.78 263.164C817.519 267.454 818.408 272.092 818.408 277.116V293.001ZM803.335 277.116C803.335 274.14 802.871 271.435 801.905 269.039C800.977 266.604 799.625 264.556 797.924 262.855C796.185 261.116 794.137 259.802 791.702 258.836C789.306 257.908 786.639 257.406 783.741 257.406H763.335C760.436 257.406 757.769 257.908 755.334 258.836C752.938 259.802 750.851 261.116 749.112 262.855C747.373 264.556 746.02 266.604 745.093 269.039C744.127 271.435 743.663 274.14 743.663 277.116V293.001C743.663 295.976 744.127 298.643 745.093 301.078C746.02 303.474 747.373 305.561 749.112 307.262C750.851 309.001 752.938 310.315 755.334 311.281C757.769 312.208 760.436 312.672 763.335 312.672H783.625C786.562 312.672 789.229 312.208 791.663 311.281C794.098 310.315 796.146 309.001 797.886 307.262C799.625 305.561 800.977 303.474 801.905 301.078C802.871 298.643 803.335 295.976 803.335 293.001V277.116Z" fill="#182122"/>
<defs>
<linearGradient id="paint0_linear_2_30" x1="12.7383" y1="162.806" x2="138.124" y2="165.075" gradientUnits="userSpaceOnUse">
<stop stop-color="#005F69"/>
<stop offset="1" stop-color="#2B9881"/>
</linearGradient>
<linearGradient id="paint1_linear_2_30" x1="178.467" y1="147.676" x2="298.425" y2="179.202" gradientUnits="userSpaceOnUse">
<stop stop-color="#009474"/>
<stop offset="1" stop-color="#6DB93A"/>
</linearGradient>
</defs>
</svg>
