<svg width="500" height="500" viewBox="0 0 500 500" fill="none" xmlns="http://www.w3.org/2000/svg">
<path fill-rule="evenodd" clip-rule="evenodd" d="M98.2837 195.392L99.1387 150.36C102.502 123.625 122.51 105.726 145.14 98.088C169.138 89.9366 212.119 95.3519 239.993 93.7558L240.506 3.91903C232.469 2.94998 175.295 3.57701 162.184 3.57701C113.846 3.57701 72.6893 -2.86433 38.0315 37.5508C31.8752 44.6762 26.8589 51.4596 22.4697 61.3211C13.7482 81.0441 13.8622 100.71 13.5772 121.801C12.7222 179.545 13.5772 308.315 13.5772 327.183C13.5772 359.618 9.815 409.268 21.5006 435.831C27.5429 449.626 37.2905 462.907 45.9549 470.261C88.3652 506.173 133.17 495.969 185.555 495.969L185.042 405.676C172.103 405.562 164.008 405.676 151.582 403.339C130.661 397.24 116.867 387.492 107.404 372.615C95.6046 354.089 98.8537 329.292 98.8537 304.382C98.8537 268.755 98.0557 231.703 98.2837 195.392Z" fill="#D0E7EA"/>
<path fill-rule="evenodd" clip-rule="evenodd" d="M222.094 199.553C207.159 203.487 206.019 214.032 206.019 231.019C206.076 310.538 205.221 393.022 206.019 471.971C206.19 487.989 214.114 495.855 230.417 496.026C301.956 496.539 294.146 504.007 294.146 415.025L294.203 222.697C294.089 206.736 285.881 198.869 269.749 198.812C260.115 198.812 229.106 197.729 222.094 199.553Z" fill="#D0E7EA"/>
<path fill-rule="evenodd" clip-rule="evenodd" d="M440.416 18.9678C426.564 10.0754 409.634 3.97603 389.683 3.57701C366.312 3.12099 277.615 2.49395 258.462 3.69102L258.291 93.6418C284.456 95.6369 318.03 90.9056 342.713 95.0099C379.366 101.052 387.688 122.542 394.642 129.212C397.265 137.363 400.058 141.182 401.027 151.215C402.395 178.462 401.255 208.617 401.255 236.149C401.312 264.423 401.255 292.696 401.312 320.97C401.369 356.768 401.312 366.059 381.361 386.067C365.685 401.914 344.024 405.334 315.18 405.676L315.066 495.969C338.608 495.912 362.607 496.026 386.605 495.912C424.626 495.741 458.999 475.391 475.644 442.101C485.505 422.378 486.531 406.246 486.531 380.937C486.531 360.815 487.329 213.12 486.702 138.56C486.246 89.6516 489.21 50.0915 440.416 18.9678Z" fill="#D0E7EA"/>
</svg>
